<?xml version="1.0" standalone="no"?>
<!DOCTYPE svg PUBLIC "-//W3C//DTD SVG 20010904//EN"
 "http://www.w3.org/TR/2001/REC-SVG-20010904/DTD/svg10.dtd">
<svg version="1.0" xmlns="http://www.w3.org/2000/svg"
 width="1280.000000pt" height="1280.000000pt" viewBox="0 0 1280.000000 1280.000000"
 preserveAspectRatio="xMidYMid meet">

<g transform="translate(0.000000,1280.000000) scale(0.100000,-0.100000)"
fill="#000000" stroke="none">
<path d="M8280 7857 c-89 -27 -145 -61 -221 -136 -134 -133 -199 -304 -199
-521 0 -142 22 -238 81 -359 53 -107 164 -223 254 -265 352 -164 715 155 715
629 0 276 -136 523 -344 621 -60 29 -88 36 -157 39 -54 3 -100 0 -129 -8z
m270 -73 c81 -39 139 -90 191 -165 98 -145 140 -322 119 -507 -28 -248 -160
-442 -349 -513 -86 -32 -203 -25 -295 19 -134 63 -245 214 -292 397 -43 164
-16 391 63 535 68 125 145 198 260 246 49 21 71 24 148 22 77 -3 99 -8 155
-34z"/>
<path d="M2776 7814 c-14 -14 -16 -97 -16 -770 0 -747 0 -754 20 -754 20 0 20
7 20 684 0 593 2 685 15 696 23 19 41 6 52 -37 10 -35 315 -1134 352 -1267 10
-36 24 -64 38 -73 20 -13 23 -12 39 12 10 15 91 293 181 618 184 665 203 735
203 741 0 2 7 7 16 10 44 17 44 22 44 -700 0 -677 0 -684 20 -684 20 0 20 7
20 754 0 673 -2 756 -16 770 -16 17 -42 20 -60 8 -20 -13 -31 -44 -84 -237
-28 -104 -58 -210 -65 -235 -7 -25 -53 -184 -100 -355 -170 -607 -159 -570
-182 -573 -28 -4 -19 -31 -223 708 -152 550 -183 657 -196 678 -17 26 -55 29
-78 6z"/>
<path d="M6530 7060 c0 -729 1 -771 18 -768 16 3 17 48 17 768 0 720 -1 765
-17 768 -17 3 -18 -39 -18 -768z"/>
<path d="M6871 7816 c-11 -13 23 -86 198 -429 l211 -415 0 -340 c0 -235 3
-343 11 -348 30 -18 34 19 37 359 l4 341 205 403 c112 222 203 410 201 420 -6
31 -27 24 -51 -19 -14 -24 -97 -185 -187 -358 -89 -173 -171 -324 -182 -335
l-20 -20 -16 24 c-10 13 -99 182 -198 375 -100 192 -186 352 -191 353 -6 2
-16 -3 -22 -11z"/>
<path d="M4303 7813 c-10 -4 -13 -165 -13 -758 l0 -752 31 -7 c17 -3 186 -6
375 -6 l344 0 0 24 0 23 -339 5 c-260 3 -343 7 -355 17 -14 12 -16 55 -16 352
l0 339 278 1 c152 0 285 2 296 4 26 5 40 21 33 39 -6 14 -43 16 -307 16 l-300
0 0 324 0 324 325 4 c331 4 355 7 342 42 -6 14 -46 16 -344 15 -186 0 -344 -3
-350 -6z"/>
<path d="M5345 7802 c-3 -8 -5 -346 -5 -752 0 -643 2 -739 15 -750 8 -7 15 -9
15 -4 0 4 5 3 12 -4 15 -15 311 -17 389 -2 284 53 472 405 445 832 -20 318
-141 545 -342 644 -77 39 -79 39 -208 42 -72 1 -173 3 -223 5 -70 1 -94 -1
-98 -11z m507 -89 c134 -63 233 -200 290 -398 19 -70 22 -103 22 -265 0 -213
-15 -295 -82 -429 -51 -105 -163 -219 -247 -252 -56 -22 -73 -24 -255 -24
l-195 0 -2 694 c-2 381 0 698 3 703 4 6 86 8 203 6 l196 -3 67 -32z"/>
<path d="M9146 7778 c-14 -20 -16 -109 -16 -764 0 -608 2 -744 13 -753 8 -6
17 -8 20 -4 4 3 8 191 8 417 1 226 4 537 8 691 6 271 7 280 26 280 23 0 24 -4
109 -310 212 -771 287 -1039 296 -1056 12 -22 43 -25 58 -6 9 11 69 209 106
350 8 29 48 178 91 332 193 705 190 697 213 693 12 -2 19 -18 24 -48 3 -25 7
-336 7 -692 1 -628 2 -648 20 -648 18 0 19 15 26 278 9 331 -2 1218 -16 1244
-6 11 -21 18 -40 18 -23 0 -32 -6 -44 -32 -9 -18 -55 -177 -104 -353 -89 -321
-149 -533 -238 -850 -42 -149 -51 -170 -70 -173 -17 -3 -24 4 -31 30 -37 128
-186 659 -192 683 -4 17 -31 113 -60 215 -29 102 -68 241 -87 310 -19 69 -41
135 -49 148 -19 29 -58 29 -78 0z"/>
<path d="M8371 6516 c-88 -8 -126 -15 -129 -25 -4 -11 16 -12 113 -6 129 8
164 15 165 30 1 14 -7 14 -149 1z"/>
<path d="M8327 6460 c-80 -8 -98 -14 -81 -29 14 -13 277 11 282 27 4 14 -68
14 -201 2z"/>
<path d="M8355 6409 c-104 -10 -123 -15 -108 -30 7 -7 51 -6 138 1 133 11 149
15 140 31 -7 10 -42 10 -170 -2z"/>
<path d="M8301 6353 c-23 -5 -23 -5 10 -39 48 -49 92 -48 144 6 l39 40 -84 -1
c-47 -1 -96 -4 -109 -6z"/>
<path d="M3697 5853 c-4 -3 -7 -46 -7 -95 l0 -88 -90 0 -90 0 0 -375 c0 -350
1 -378 20 -428 22 -59 84 -129 142 -158 70 -36 153 -40 763 -37 l590 3 3 93 3
92 -623 0 c-607 0 -624 1 -656 20 -60 37 -62 51 -62 440 l0 350 668 2 667 3 0
90 0 90 -661 3 c-363 1 -664 -1 -667 -5z"/>
<path d="M5825 5838 c-3 -13 -5 -55 -3 -93 l3 -70 543 -5 544 -5 29 -33 c31
-35 31 -35 29 -192 -1 -109 -17 -152 -64 -181 -29 -18 -59 -19 -498 -19 l-468
0 0 -90 0 -89 469 -3 c459 -3 470 -3 498 -24 54 -40 62 -67 64 -210 0 -72 4
-136 8 -141 3 -6 42 -10 91 -9 l85 1 0 160 c0 154 -1 162 -28 220 -15 33 -35
67 -43 76 -13 14 -11 22 20 67 45 67 57 130 55 280 -1 133 -10 176 -47 236
-34 55 -68 85 -132 115 l-55 26 -547 3 -547 3 -6 -23z"/>
<path d="M7960 5765 l0 -95 -95 0 -95 0 2 -497 3 -498 90 0 90 0 3 498 2 498
540 -3 540 -3 32 -33 33 -32 3 -133 c3 -148 -3 -168 -57 -204 l-34 -23 -468 0
-469 0 0 -90 0 -90 493 0 492 0 52 24 c69 33 127 95 153 164 20 51 21 73 18
227 -3 167 -4 171 -33 223 -35 64 -71 96 -145 131 l-55 26 -547 3 -548 3 0
-96z"/>
<path d="M5642 5173 l3 -498 88 -1 c48 -1 87 1 87 5 0 3 1 228 3 499 l2 492
-93 0 -92 0 2 -497z"/>
<path d="M3810 5265 l0 -95 550 0 550 0 0 95 0 95 -550 0 -550 0 0 -95z"/>
</g>
</svg>
